# Blender v2.81 (sub 16) OBJ File: ''
# www.blender.org
mtllib bullet.mtl
o Cube
v 1.000000 1.000000 -1.000000
v 1.000000 -1.000000 -1.000000
v 0.244143 0.310903 1.089301
v 0.233015 -0.191832 1.084862
v -1.000000 1.000000 -1.000000
v -1.000000 -1.000000 -1.000000
v -0.243190 0.311210 1.089397
v -0.233015 -0.191832 1.084862
vt 0.625000 0.500000
vt 0.875000 0.500000
vt 0.875000 0.750000
vt 0.625000 0.750000
vt 0.375000 0.750000
vt 0.625000 1.000000
vt 0.375000 1.000000
vt 0.375000 0.000000
vt 0.625000 0.000000
vt 0.625000 0.250000
vt 0.375000 0.250000
vt 0.125000 0.500000
vt 0.375000 0.500000
vt 0.125000 0.750000
vn 0.0001 0.9497 0.3132
vn 0.0001 -0.0089 1.0000
vn -0.9393 -0.0044 0.3430
vn 0.0000 -0.9324 0.3614
vn 0.9394 -0.0048 0.3428
vn 0.0000 0.0000 -1.0000
usemtl Material
s off
f 1/1/1 5/2/1 7/3/1 3/4/1
f 4/5/2 3/4/2 7/6/2 8/7/2
f 8/8/3 7/9/3 5/10/3 6/11/3
f 6/12/4 2/13/4 4/5/4 8/14/4
f 2/13/5 1/1/5 3/4/5 4/5/5
f 6/11/6 5/10/6 1/1/6 2/13/6
